<?xml version="1.0" encoding="utf-8"?>
<!-- Generator: Adobe Illustrator 27.3.1, SVG Export Plug-In . SVG Version: 6.00 Build 0)  -->
<svg version="1.1" id="Camada_1" xmlns="http://www.w3.org/2000/svg" xmlns:xlink="http://www.w3.org/1999/xlink" x="0px" y="0px"
	 viewBox="0 0 150 79" style="enable-background:new 0 0 150 79;" xml:space="preserve">
<style type="text/css">
	.st0{fill:#FFFFFF;}
	.st1{fill:#63AEDA;}
	.st2{fill:#3E68A5;}
</style>
<g>
	<g>
		<g>
			<polygon class="st2" points="13.36,24.24 20.48,32.97 27.85,24.12 27.85,35.48 32.56,35.48 32.56,15.28 29.12,15.28 20.53,25.57 
				12.12,15.28 8.65,15.28 8.65,35.48 13.36,35.48 			"/>
		</g>
		<g>
			<polygon class="st2" points="51.95,30.8 39.58,30.8 39.58,27.74 47.99,27.74 47.99,23.05 39.58,23.05 39.58,19.99 52.01,19.99 
				52.01,15.28 34.87,15.28 34.87,35.48 51.95,35.48 			"/>
		</g>
		<g>
			<polygon class="st2" points="69.07,30.8 59.03,30.8 59.03,15.28 54.32,15.28 54.32,35.48 69.07,35.48 			"/>
		</g>
		<g>
			<polygon class="st2" points="76.09,27.74 87.07,27.74 87.07,35.54 91.79,35.54 91.79,15.28 87.07,15.28 87.07,23.05 76.09,23.05 
				76.09,15.28 71.38,15.28 71.38,35.54 76.09,35.54 			"/>
		</g>
		<g>
			<g>
				<path class="st2" d="M106.38,15.28c-6.79,0-12.29,4.54-12.29,10.12s5.49,10.09,12.29,10.09c6.76,0,12.26-4.51,12.26-10.09
					S113.15,15.28,106.38,15.28z M106.38,30.8c-4.1,0-7.57-2.49-7.57-5.41c0-2.95,3.47-5.41,7.57-5.41c4.11,0,7.57,2.46,7.57,5.41
					C113.96,28.32,110.49,30.8,106.38,30.8z"/>
			</g>
		</g>
		<g>
			<g>
				<path class="st2" d="M125.66,30.95h3.04c2.28,0,6.24,4.6,10,4.6c3.76,0,4.89-4.08,2.17-5.12c-1.04,1.01-4.08,0.32-4.65-0.69
					c1.24-0.46,4.28-2.6,4.28-6.62c0-4.02-3.7-7.81-10.75-7.81h-8.79v20.24h4.71V30.95z M125.66,20.02h4.08
					c3.93,0,6.07,1.01,6.07,3.09s-2.14,3.12-6.07,3.12h-4.08V20.02z"/>
			</g>
		</g>
		<g>
			<polygon class="st2" points="23.03,53.98 13.26,53.98 13.26,38.86 8.67,38.86 8.67,58.55 23.03,58.55 			"/>
		</g>
		<g>
			<polygon class="st2" points="43.7,48.89 35.51,38.86 32.13,38.86 32.13,58.55 36.72,58.55 36.72,47.59 43.65,56.1 50.83,47.48 
				50.83,58.55 55.42,58.55 55.42,38.86 52.07,38.86 			"/>
		</g>
		<g>
			<g>
				<path class="st2" d="M65.95,38.89h-8.56V58.6h4.59v-4.48h4.53c6.31,0,9.91-3.66,9.91-7.63C76.43,42.52,72.82,38.89,65.95,38.89z
					 M66.51,49.53h-4.53v-6.05h3.97c3.83,0,5.91,1.18,5.91,3.01C71.87,48.32,69.78,49.53,66.51,49.53z"/>
			</g>
		</g>
		<g>
			<polygon class="st2" points="78.12,58.55 94.76,58.55 94.76,53.98 82.71,53.98 82.71,51 90.9,51 90.9,46.44 82.71,46.44 
				82.71,43.45 94.82,43.45 94.82,38.86 78.12,38.86 			"/>
		</g>
		<g>
			<polygon class="st2" points="114.62,42.52 114.62,38.92 98.68,38.92 98.68,43.48 107.52,43.48 97.35,54.52 97.35,58.57 
				115.83,58.57 115.83,54.01 104.06,54.01 			"/>
		</g>
		<g>
			<g>
				<path class="st2" d="M133.4,38.92v-0.03h-5.49v0.03l-9.55,19.66h5.1l1.8-3.77h10.65l1.8,3.77h5.07L133.4,38.92z M127.49,50.24
					l3.15-6.51l3.1,6.51H127.49z"/>
			</g>
		</g>
		<g>
			<polygon class="st1" points="32.3,62.78 31.47,58.6 29.87,58.6 29.87,38.86 25.28,38.86 25.28,58.6 23.95,58.6 23.11,62.78 
				15.59,62.78 12.25,69.46 44.83,69.46 40.66,62.78 			"/>
		</g>
	</g>
</g>
</svg>
