<svg xmlns="http://www.w3.org/2000/svg"  xmlns:xlink="http://www.w3.org/1999/xlink" width="132.5" height="34.542" viewBox="0 0 132.5 34.542">
  <defs>
    <clipPath id="clip-path">
      <rect id="Retângulo_28" data-name="Retângulo 28" width="132.5" height="34.542" fill="#fff"/>
    </clipPath>
  </defs>

  <g id="Grupo_2" data-name="Grupo 2" transform="translate(0 0)">
    <g id="Grupo_1" data-name="Grupo 1" transform="translate(0 0)" clip-path="url(#clip-path)">
      <path id="Caminho_1" data-name="Caminho 1" d="M148.521,40.132c.363-5.976-5.251-11.486-11.559-11.44a11.523,11.523,0,0,0-11.427,12.474c.489,6.549,6.639,10.883,11.452,10.407V45.985c-3.53-.414-5.734-2.7-5.71-5.867a5.785,5.785,0,0,1,5.327-5.669c3.159-.278,5.521,1.838,6.307,5.683Zm-62.115-.016c-.111-.851-.155-1.644-.325-2.41a11.536,11.536,0,0,0-22.793,2.486q-.01,5.225,0,10.449v.968h5.763v-1.1c0-3.419-.01-6.839,0-10.258A5.763,5.763,0,0,1,80.5,39.227c.056.3.117.6.173.889Zm72.406,11.558L170.348,28.69c-1.763,0-3.324.041-4.882-.018a1.213,1.213,0,0,0-1.3.833c-1.576,3.209-3.193,6.4-4.8,9.593-.152.3-.33.592-.561,1-.227-.412-.4-.7-.549-1-1.62-3.224-3.23-6.452-4.864-9.668-.143-.282-.425-.693-.654-.7-1.769-.059-3.54-.032-5.465-.032l11.535,22.979m-60.979-.037a3.668,3.668,0,0,0,.061-.44c0-3.768.1-7.538-.027-11.3-.162-4.918-2.724-8.315-7.149-10.352a9.676,9.676,0,0,0-4.3-.82v5.618c4.444.624,5.915,3.723,5.755,7.056-.146,3.058-.031,6.129-.031,9.194v1.045Z" transform="translate(-37.848 -17.146)" fill="#fff"/>
      <path id="Caminho_2" data-name="Caminho 2" d="M178.405,0c-.011,7.384,0,14.769-.051,22.154a16.243,16.243,0,0,1-.449,4.076,11.528,11.528,0,1,1-11.927-14.65c.247-.02.5,0,.8,0V17.2c-.584.129-1.183.213-1.751.4a5.751,5.751,0,1,0,7.567,5.525c.053-5.083.017-10.168.021-15.252q0-3.933.011-7.865Z" transform="translate(-92.868 0)" fill="#fff"/>
      <path id="Caminho_3" data-name="Caminho 3" d="M5.78,0c0,7.7-.018,15.406,0,23.108a5.735,5.735,0,0,0,5.309,5.671A5.743,5.743,0,0,0,12.6,17.406c-.315-.06-.631-.113-.99-.177V11.4a32.489,32.489,0,0,1,3.8.824,11.474,11.474,0,0,1-3.693,22.3A11.456,11.456,0,0,1,.18,25.1,3.842,3.842,0,0,0,0,24.559V0Z" transform="translate(0 0)" fill="#fff"/>
      <path id="Caminho_4" data-name="Caminho 4" d="M241.095,40.164h-5.611c-.785-3.845-3.148-5.961-6.307-5.684a5.786,5.786,0,0,0-5.327,5.67c-.024,3.166,2.18,5.453,5.711,5.867V51.6c-4.812.476-10.963-3.858-11.452-10.407a11.523,11.523,0,0,1,11.427-12.474c6.308-.046,11.922,5.465,11.559,11.44" transform="translate(-130.422 -17.178)" fill="#fff"/>
      <path id="Caminho_5" data-name="Caminho 5" d="M86.406,40.13H80.67c-.056-.285-.117-.587-.173-.889a5.763,5.763,0,0,0-11.444,1.022c-.014,3.419,0,6.839,0,10.258v1.1H63.287v-.968c0-3.483-.006-6.966,0-10.45A11.536,11.536,0,0,1,86.08,37.72c.171.766.215,1.559.326,2.41" transform="translate(-37.848 -17.159)" fill="#fff"/>
      <path id="Caminho_6" data-name="Caminho 6" d="M283.784,51.674,272.249,28.7c1.925,0,3.7-.026,5.464.032.229.008.51.419.654.7,1.634,3.216,3.244,6.445,4.864,9.668.151.3.323.59.549,1,.23-.41.408-.7.561-1,1.607-3.194,3.224-6.383,4.8-9.593a1.213,1.213,0,0,1,1.3-.833c1.557.06,3.118.019,4.882.019L283.784,51.674" transform="translate(-162.821 -17.146)" fill="#fff"/>
      <path id="Caminho_7" data-name="Caminho 7" d="M132.256,51.715h-5.688V50.669c0-3.065-.115-6.136.031-9.194.16-3.333-1.311-6.432-5.755-7.056V28.8a9.676,9.676,0,0,1,4.3.82c4.425,2.036,6.987,5.434,7.149,10.352.123,3.763.028,7.534.027,11.3a3.67,3.67,0,0,1-.061.44" transform="translate(-72.272 -17.223)" fill="#fff"/>
    </g>
  </g>
</svg>
